<?xml version="1.0" standalone="no"?>
<!DOCTYPE svg PUBLIC "-//W3C//DTD SVG 20010904//EN"
 "http://www.w3.org/TR/2001/REC-SVG-20010904/DTD/svg10.dtd">
<svg version="1.0" xmlns="http://www.w3.org/2000/svg"
 width="400.000000pt" height="400.000000pt" viewBox="0 0 400.000000 400.000000"
 preserveAspectRatio="xMidYMid meet">
<metadata>
Created by potrace 1.14, written by Peter Selinger 2001-2017
</metadata>
<g transform="translate(0.000000,400.000000) scale(0.100000,-0.100000)"
fill="#000000" stroke="none">
<path d="M2187 3993 c-2 -5 -3 -45 -3 -90 1 -46 -1 -84 -4 -84 -3 -1 -42 -2
-87 -3 -45 0 -84 -4 -88 -8 -4 -3 -7 -276 -8 -605 l-2 -598 -80 -1 c-44 -1
-85 -2 -92 -3 -8 -1 -13 -30 -15 -93 l-3 -92 -120 2 c-66 1 -128 -1 -137 -4
-15 -5 -18 -18 -18 -94 l0 -89 -142 -3 -143 -3 0 -90 0 -90 -90 0 -90 0 -3
-92 -3 -92 -107 -3 c-59 -2 -142 -2 -185 0 l-78 3 2 85 c1 46 -1 88 -5 91 -4
4 -46 8 -93 8 l-86 0 -1 90 -1 90 -92 3 -93 3 0 184 c0 102 -3 185 -7 186 -5
0 -44 1 -88 2 l-80 2 -3 -562 -2 -563 85 0 c61 0 85 -4 86 -12 1 -7 2 -44 4
-83 1 -38 3 -76 3 -82 1 -9 21 -13 60 -12 31 1 72 1 90 0 l32 -1 0 -90 0 -90
28 -1 c15 0 56 -1 92 -2 l65 -2 1 -75 c1 -41 2 -83 3 -92 1 -15 15 -18 93 -20
l92 -3 1 -90 0 -90 93 0 92 0 0 -367 0 -368 193 0 192 0 0 88 0 87 -97 3 -98
3 0 89 0 90 48 1 c26 1 69 2 97 3 l50 1 0 90 1 90 69 2 c39 1 80 2 92 2 21 1
22 6 25 93 l3 92 75 -1 c41 -1 81 -1 88 -2 8 -1 12 -26 12 -91 l0 -89 93 -3
92 -3 2 -250 c1 -137 2 -260 2 -272 l1 -23 188 0 188 0 0 87 -1 88 -92 3 -93
3 0 369 0 369 93 3 92 3 1 70 c3 129 -8 116 89 113 47 -1 88 1 91 5 4 4 7 68
7 142 l-1 135 94 0 94 0 0 324 0 324 92 -2 92 -1 1 -90 0 -90 95 0 95 0 0 185
0 185 -187 3 -188 2 0 184 0 183 353 1 c193 0 362 1 375 1 21 1 22 4 22 96 l0
95 -280 0 -280 0 0 90 0 90 465 0 465 0 0 420 c0 273 -4 420 -10 421 -5 1 -47
2 -92 3 l-82 1 -1 90 0 90 -747 3 c-411 1 -748 -1 -751 -5z m363 -282 c11 -2
7 -171 -4 -172 -6 0 -46 -2 -88 -3 l-78 -3 -1 31 c-4 97 -3 132 4 142 6 9 137
13 167 5z"/>
</g>
</svg>
